<svg width="0" height="0" class="hidden">
  <symbol xmlns="http://www.w3.org/2000/svg" viewBox="0 0 477.867 477.867" id="statistics">
    <path d="M119.467 187.733h-102.4C7.641 187.733 0 195.374 0 204.8v256c0 9.426 7.641 17.067 17.067 17.067h102.4c9.426 0 17.067-7.641 17.067-17.067v-256c-.001-9.426-7.642-17.067-17.067-17.067zm-17.067 256H34.133V221.867H102.4v221.866zM290.133 0h-102.4c-9.426 0-17.067 7.641-17.067 17.067V460.8c0 9.426 7.641 17.067 17.067 17.067h102.4c9.426 0 17.067-7.641 17.067-17.067V17.067C307.2 7.641 299.559 0 290.133 0zm-17.066 443.733H204.8v-409.6h68.267v409.6zm187.733-307.2H358.4c-9.426 0-17.067 7.641-17.067 17.067v307.2c0 9.426 7.641 17.067 17.067 17.067h102.4c9.426 0 17.067-7.641 17.067-17.067V153.6c0-9.426-7.641-17.067-17.067-17.067zm-17.067 307.2h-68.267V170.667h68.267v273.066z"></path>
  </symbol>
</svg>