<svg width="0" height="0" class="hidden">
  <symbol xmlns="http://www.w3.org/2000/svg" viewBox="0 0 512 512" id="2784288_finance_business_money_icon">
    <title></title>
    <path d="M159 450H69.13a15 15 0 01-15-15V313a15 15 0 0115-15H159a15 15 0 0115 15v122a15 15 0 01-15 15zm-74.87-30H144v-92H84.13zm215.94 30H210.2a15 15 0 01-15-15V260.11a15 15 0 0115-15h89.87a15 15 0 0115 15V435a15 15 0 01-15 15zm-74.87-30h59.87V275.11H225.2zm215.93 30h-89.86a15 15 0 01-15-15V199.74a15 15 0 0115-15h89.86a15 15 0 0115 15V435a15 15 0 01-15 15zm-74.86-30h59.86V214.74h-59.86zm-13.2-266.08a15 15 0 01-13.35-21.82L356.58 99l-33.09-16.85a15 15 0 1113.62-26.73l46.46 23.67a15 15 0 016.55 20.17l-23.67 46.46a15 15 0 01-13.38 8.2z"></path>
    <path d="M98.86 197.75a15 15 0 01-4.63-29.27l273.14-88.75a15 15 0 019.27 28.53L103.5 197a15 15 0 01-4.64.75z"></path>
  </symbol>
</svg>